{"title":"Orange County.2002.SWESUB.x264.AAC.mp4-Zen_Bud","uid":5655977,"size":983305256,"categoryP":"video","categoryS":"movies","magnet":"?xt=urn:btih:1a95326240da352af96a81f84d8b6cec2d0d6705&amp;dn=Orange+County.2002.SWESUB.x264.AAC.mp4-Zen_Bud&amp;tr=udp%3A%2F%2Ftracker.openbittorrent.com%3A80&amp;tr=udp%3A%2F%2Fopen.demonii.com%3A1337&amp;tr=udp%3A%2F%2Ftracker.coppersurfer.tk%3A6969&amp;tr=udp%3A%2F%2Fexodus.desync.com%3A6969","seeders":2,"leechers":0,"uploader":"Zen_Bud","files":-1,"time":1277800657,"description":"General\nComplete name                    : Orange County.mp4\nFormat                           : MPEG-4\nCodec ID                         : mp42\nFile size                        : 938 MiB\nDuration                         : 1h 18mn\nOverall bit rate                 : 1 664 Kbps\nWriting application              : HandBrake \n\nVideo\n\nFormat                           : AVC\nDuration                         : 1h 18mn\nBit rate                         : 1 500 Kbps\nWidth                            : 720 pixels\nHeight                           : 548 pixels\nDisplay aspect ratio             : 1.868\nBits/(Pixel*Frame)               : 0.152\nStream size                      : 846 MiB (90%)\nWriting library                  : x264 core 65\n\n\nAudio\n\nFormat                           : AAC\nDuration                         : 1h 18mn\nMaximum bit rate                 : 191 Kbps\nChannel(s)                       : 2 channels\nChannel positions                : Front: L R\nSampling rate                    : 48.0 KHz\nStream size                      : 90.2 MiB (10%)\n\n\n\n\n\n","torrent":{"xt":"urn:btih:1a95326240da352af96a81f84d8b6cec2d0d6705","amp;dn":"Orange+County.2002.SWESUB.x264.AAC.mp4-Zen_Bud","amp;tr":["udp%3A%2F%2Ftracker.openbittorrent.com%3A80","udp%3A%2F%2Fopen.demonii.com%3A1337","udp%3A%2F%2Ftracker.coppersurfer.tk%3A6969","udp%3A%2F%2Fexodus.desync.com%3A6969"],"infoHash":"1a95326240da352af96a81f84d8b6cec2d0d6705","infoHashBuffer":{"type":"Buffer","data":[26,149,50,98,64,218,53,42,249,106,129,248,77,139,108,236,45,13,103,5]},"announce":[],"urlList":[]}}